<?xml version="1.0" standalone="no"?>
<!DOCTYPE svg PUBLIC "-//W3C//DTD SVG 20010904//EN"
 "http://www.w3.org/TR/2001/REC-SVG-20010904/DTD/svg10.dtd">
<svg version="1.0" xmlns="http://www.w3.org/2000/svg"
 width="200.000000pt" height="200.000000pt" viewBox="0 0 200.000000 200.000000"
 preserveAspectRatio="xMidYMid meet">

<g transform="translate(0.000000,200.000000) scale(0.100000,-0.100000)"
fill="#000000" stroke="none">
<path d="M948 1561 c-96 -31 -152 -107 -152 -206 0 -57 5 -71 52 -153 48 -82
52 -95 52 -153 1 -85 36 -129 105 -129 72 0 115 57 115 153 0 45 7 66 44 131
66 116 70 175 20 263 -42 74 -157 119 -236 94z m139 -47 c67 -32 108 -119 92
-195 -11 -48 -87 -179 -105 -179 -20 0 -18 40 6 101 15 36 18 55 10 63 -6 6
-13 6 -19 1 -10 -12 -39 -100 -43 -135 -2 -17 -9 -25 -23 -25 -16 0 -21 9 -26
45 -8 51 -35 120 -47 120 -19 0 -19 -15 -1 -67 43 -127 10 -139 -55 -19 -36
65 -46 93 -46 130 0 74 46 145 110 169 31 12 113 6 147 -9z m-7 -422 c0 -16
-6 -17 -75 -8 -41 5 -75 13 -75 18 0 4 34 8 75 8 65 0 75 -2 75 -18z m-42 -47
c28 -5 42 -12 42 -22 0 -13 -10 -14 -61 -9 -75 9 -89 14 -89 33 0 12 8 14 33
10 17 -3 51 -9 75 -12z m12 -72 c2 -2 -2 -8 -10 -14 -20 -13 -71 -3 -90 17
-14 14 -10 15 40 9 30 -4 57 -9 60 -12z"/>
</g>
</svg>
